# xmcd CD database file
#
# Track frame offsets:
#	183
#	11180
#	26758
#	43318
#	57503
#	71438
#	89643
#	102558
#	114778
#	131350
#	146778
#	162858
#	175990
#
# Disc length: 2627 seconds
#
# Revision: 0
# Processed by: cddbd v1.5.1PL0 Copyright (c) Steve Scherf et al.
# Submitted via: CDex 1.51
#
DISCID=bc0a410d
DTITLE=Elvis Costello - Barbados
DYEAR=1992
DGENRE=Rhythmic Soul
TTITLE0=Strange
TTITLE1=Hidden Charms
TTITLE2=Remove This Doubt
TTITLE3=I Threw It All Away
TTITLE4=Leave My Kitten Alone
TTITLE5=Everybody's Crying Mercy
TTITLE6=All I've Been Longing For
TTITLE7=Bama Lama, Bama Lou
TTITLE8=Must You Throw Dirt In My Face
TTITLE9=Pouring Water On A Drowning Man
TTITLE10=The Very Thought Of You
TTITLE11=Pay Day
TTITLE12=Don't Go, Please Stay
EXTD=YEAR: 1992
EXTT0=
EXTT1=
EXTT2=
EXTT3=
EXTT4=
EXTT5=
EXTT6=
EXTT7=
EXTT8=
EXTT9=
EXTT10=
EXTT11=
EXTT12=
PLAYORDER=
